<svg width="512" height="512" viewBox="0 0 512 512" xmlns="http://www.w3.org/2000/svg">
  <defs>
    <linearGradient id="gradient" x1="0%" y1="0%" x2="100%" y2="100%">
      <stop offset="0%" style="stop-color:#2563eb;stop-opacity:1" />
      <stop offset="100%" style="stop-color:#1e40af;stop-opacity:1" />
    </linearGradient>
  </defs>
  
  <!-- Background -->
  <rect width="512" height="512" rx="80" fill="url(#gradient)"/>
  
  <!-- Tooth icon -->
  <g transform="translate(256, 256)">
    <!-- Main tooth shape -->
    <path d="M-60,-80 C-80,-80 -100,-60 -100,-40 C-100,0 -80,60 -60,80 L-20,80 C-20,60 0,60 0,60 C0,60 20,60 20,80 L60,80 C80,60 100,0 100,-40 C100,-60 80,-80 60,-80 C40,-80 20,-60 0,-60 C-20,-60 -40,-80 -60,-80 Z" fill="white"/>
    
    <!-- Tooth details -->
    <circle cx="-30" cy="-20" r="8" fill="#e5e7eb"/>
    <circle cx="30" cy="-20" r="8" fill="#e5e7eb"/>
    <path d="M-40,0 Q0,20 40,0" stroke="#e5e7eb" stroke-width="4" fill="none"/>
  </g>
  
  <!-- Microphone icon in bottom right -->
  <g transform="translate(400, 400)">
    <circle cx="0" cy="0" r="40" fill="white" opacity="0.9"/>
    <rect x="-8" y="-20" width="16" height="25" rx="8" fill="#2563eb"/>
    <path d="M-20,0 C-20,11 -11,20 0,20 C11,20 20,11 20,0" stroke="#2563eb" stroke-width="3" fill="none"/>
    <line x1="0" y1="20" x2="0" y2="30" stroke="#2563eb" stroke-width="3"/>
    <line x1="-10" y1="30" x2="10" y2="30" stroke="#2563eb" stroke-width="3"/>
  </g>
</svg>